<svg id="Calque_1" data-name="Calque 1" xmlns="http://www.w3.org/2000/svg" viewBox="0 0 114.4 97.55"><defs><style>.cls-1,.cls-2{fill:#fff;}.cls-2{opacity:0.55;}</style></defs><path class="cls-1" d="M98.94,11a4.46,4.46,0,0,1,4.46,4.45V82a4.46,4.46,0,0,1-4.46,4.46H15.46A4.46,4.46,0,0,1,11,82V15.45A4.46,4.46,0,0,1,15.43,11H98.94m0-11H15.46A15.47,15.47,0,0,0,0,15.44H0v66.6A15.48,15.48,0,0,0,15.46,97.51H98.94A15.48,15.48,0,0,0,114.4,82.05V15.45A15.47,15.47,0,0,0,99,0Z" transform="translate(0 0.04)"/><rect class="cls-2" x="21.92" y="41.75" width="42.42" height="34.66" rx="3.31"/></svg>