<svg id="Calque_1" data-name="Calque 1" xmlns="http://www.w3.org/2000/svg" viewBox="0 0 114.4 97.51"><defs><style>.cls-1{opacity:0.86;}.cls-2{fill:#fff;}</style></defs><g class="cls-1"><path class="cls-2" d="M106.8,25a4.46,4.46,0,0,1,4.46,4.45v66.6a4.46,4.46,0,0,1-4.46,4.46H23.32a4.46,4.46,0,0,1-4.46-4.46V29.49A4.46,4.46,0,0,1,23.32,25H106.8m0-11H23.32A15.47,15.47,0,0,0,7.86,29.49v66.6a15.48,15.48,0,0,0,15.46,15.46H106.8a15.48,15.48,0,0,0,15.46-15.46V29.49A15.47,15.47,0,0,0,106.8,14Z" transform="translate(-7.86 -14.04)"/></g><rect class="cls-2" x="51.14" y="41.71" width="42.42" height="34.66" rx="3.31"/></svg>