<svg id="icon" xmlns="http://www.w3.org/2000/svg" xmlns:xlink="http://www.w3.org/1999/xlink" viewBox="0 0 1024 1024"><defs><style>.cls-1,.cls-4{fill:none;}.cls-2{clip-path:url(#clip-path);}.cls-3{fill:#ffce45;}.cls-4{stroke:#ff4763;stroke-linecap:round;stroke-linejoin:round;stroke-width:55.84px;}.cls-5{fill:#e3b229;}</style><clipPath id="clip-path"><rect class="cls-1" width="1024" height="1024"/></clipPath></defs><g id="icon-2" data-name="icon"><g class="cls-2"><path class="cls-3" d="M880,236.93c51.67,0,93.55-39.08,93.55-87.3,0-45.9-38-83.5-86.19-87l.25-.29S799.23,43,748.54,171.69c-.55,1.39-1,2.72-1.52,4-27.42,53.08-37.1,124.22-14,261.85,35.86,213.52-136,253.14-221,253.14-107.22,0-256.89-39.62-221-253.14,23.11-137.63,13.43-208.77-14-261.85-.47-1.28-1-2.61-1.52-4C224.77,43,136.42,62.33,136.42,62.33l.25.29c-48.22,3.51-86.19,41.11-86.19,87,0,48.22,41.88,87.3,93.55,87.3a96.75,96.75,0,0,0,66.22-25.63c32,54.62,16.37,141.79-24.11,232.51C50.48,747.84,216.8,977.24,512,977.24c273,0,461.52-229.4,325.86-533.43-40.48-90.72-56.09-177.89-24.11-232.51A96.75,96.75,0,0,0,880,236.93Z"/><polyline class="cls-4" points="363.79 256.25 400.63 256.25 482.11 424.14 559.89 61.29 627.79 252.48 668.05 252.48"/><ellipse class="cls-5" cx="517.18" cy="834.77" rx="65.61" ry="62.81"/></g></g></svg>