<svg id="Calque_1" data-name="Calque 1" xmlns="http://www.w3.org/2000/svg" viewBox="0 0 128 128"><defs><style>.cls-1{fill:#8c8c8c;}.cls-2{fill:none;stroke:#e0e0e0;stroke-linecap:round;stroke-linejoin:round;stroke-width:8px;}.cls-3{fill:#5c5c5c;}</style></defs><path class="cls-1" d="M110.29,30.66c6.45,0,11.68-4.88,11.68-10.91,0-5.73-4.74-10.42-10.76-10.86l0,0s-11-2.41-17.37,13.66c-.07.17-.13.34-.19.5-3.43,6.63-4.63,15.51-1.75,32.7,4.48,26.67-17,31.62-27.6,31.62-13.39,0-32.09-5-27.6-31.62C39.61,38.52,38.4,29.64,35,23c-.06-.16-.13-.33-.19-.5C28.45,6.44,17.42,8.85,17.42,8.85l0,0C11.43,9.33,6.68,14,6.68,19.75c0,6,5.24,10.91,11.69,10.91a12.11,12.11,0,0,0,8.27-3.2c4,6.82,2,17.7-3,29-16.95,38,3.83,66.62,40.7,66.62C98.42,123.12,122,94.47,105,56.5c-5-11.33-7-22.22-3-29A12.14,12.14,0,0,0,110.29,30.66Z"/><polyline class="cls-2" points="48.63 32.82 61.22 50.68 69.49 12.08 81 32.42"/><ellipse class="cls-3" cx="64.97" cy="105.33" rx="8.19" ry="7.84"/></svg>